PathFileType	4	(X/Y/Z)	/Users/itak/Documents/Research/Walk-IL/dataset/trc/00447_00167.trc
DataRate	CameraRate	NumFrames	NumMarkers	Units	OrigDataRate	OrigDataStartFrame	OrigNumFrames
100.000000	100.000000	4	55	mm	100.000000	183	294
Frame#	Time	RPSI			LPSI			L3			STRN			T10			C7			CLAV			RBAK			LBAK			LSHO			LUPA			LAEL			LAOL			LWTS			LWPS			LFRA			LIFD			LHPS			LHTS			RSHO			RUPA			RAEL			RAOL			RWTS			RWPS			RFRA			RIFD			RHTS			RHPS			RBHD			LFHD			RFHD			LBHD			LHIP			RHIP			RASI			LASI			LKNE			LTHI			LANK			LTIP			LTOE			LMT1			LMT5			LHEE			RKNE			RTHI			RANK			RTIP			RTOE			RMT1			RMT5			RHEE			*53			*54			
		X1	Y1	Z1	X2	Y2	Z2	X3	Y3	Z3	X4	Y4	Z4	X5	Y5	Z5	X6	Y6	Z6	X7	Y7	Z7	X8	Y8	Z8	X9	Y9	Z9	X10	Y10	Z10	X11	Y11	Z11	X12	Y12	Z12	X13	Y13	Z13	X14	Y14	Z14	X15	Y15	Z15	X16	Y16	Z16	X17	Y17	Z17	X18	Y18	Z18	X19	Y19	Z19	X20	Y20	Z20	X21	Y21	Z21	X22	Y22	Z22	X23	Y23	Z23	X24	Y24	Z24	X25	Y25	Z25	X26	Y26	Z26	X27	Y27	Z27	X28	Y28	Z28	X29	Y29	Z29	X30	Y30	Z30	X31	Y31	Z31	X32	Y32	Z32	X33	Y33	Z33	X34	Y34	Z34	X35	Y35	Z35	X36	Y36	Z36	X37	Y37	Z37	X38	Y38	Z38	X39	Y39	Z39	X40	Y40	Z40	X41	Y41	Z41	X42	Y42	Z42	X43	Y43	Z43	X44	Y44	Z44	X45	Y45	Z45	X46	Y46	Z46	X47	Y47	Z47	X48	Y48	Z48	X49	Y49	Z49	X50	Y50	Z50	X51	Y51	Z51	X52	Y52	Z52	X53	Y53	Z53	X54	Y54	Z54	X55	Y55	Z55	

184	1.83	288.6368103027344	873.8269653320312	422.5592956542969	370.8553466796875	872.175537109375	304.7395629882812	326.1243286132812	988.0183715820312	389.3117065429688	568.6065063476562	1183.955810546875	551.6414184570312	316.9706115722656	1113.294067382812	392.2052307128906	357.5735473632812	1377.510620117188	468.6839294433594	534.8950805664062	1298.891967773438	538.7885131835938	265.3397827148438	1247.550903320312	508.7002868652344	377.8693542480469	1344.494140625	362.8016967773438	508.7616271972656	1379.160766601562	343.9037780761719	543.216796875	1282.876586914062	232.5581970214844	575.3214721679688	1086.7236328125	163.4711303710938	473.2701721191406	1062.894287109375	161.4752655029297	635.0814208984375	920.0265502929688	279.205078125	636.6881713867188	889.7509155273438	212.6367034912109	609.2786254882812	1005.544311523438	183.0977783203125	676.8179321289062	764.8342895507812	313.8819580078125	663.2589111328125	818.0443115234375	232.2561950683594	677.517578125	844.7652587890625	297.1665649414062	344.8961791992188	1326.67578125	642.9176635742188	296.8974914550781	1256.534545898438	694.1456298828125	264.8231201171875	973.2841796875	729.8429565429688	234.3969573974609	959.5186767578125	670.3391723632812	373.4877319335938	772.0350952148438	728.265625	289.673583984375	763.3604736328125	751.8419189453125	263.979248046875	915.1987915039062	737.5908813476562	356.8849792480469	614.4061279296875	742.0451049804688	373.8962707519531	671.790283203125	749.906494140625	299.3004150390625	678.17431640625	763.3950805664062	357.0778503417969	1570.072021484375	564.2506713867188	544.6898803710938	1609.302124023438	487.7955627441406	482.1866149902344	1614.406982421875	602.4921875	426.9911193847656	1563.996826171875	400.7015991210938	560.9685668945312	789.0204467773438	290.11767578125	330.3345336914062	793.4932250976562	615.3917236328125	438.5570983886719	853.1796264648438	615.86669921875	587.533935546875	839.2584228515625	405.8282470703125	644.6549682617188	390.7857055664062	330.7740478515625	663.8132934570312	543.8385620117188	338.4059753417969	275.1169738769531	325.8064575195312	101.0435638427734	517.9417114257812	338.0443115234375	235.1186676025391	294.8389892578125	108.5119171142578	175.219970703125	263.3080139160156	174.3521728515625	199.7324066162109	310.2967529296875	183.7498321533203	98.38442230224609	238.7227020263672	373.1517944335938	142.3895263671875	511.7781372070312	443.6963806152344	678.2239990234375	402.9305419921875	681.8554077148438	671.2440185546875	415.9660339355469	43.04347991943359	579.5984497070312	497.1551208496094	296.8975524902344	667.5953369140625	621.756103515625	36.46325302124023	670.7432861328125	590.1796875	45.78601455688477	602.6212768554688	506.73291015625	39.03653335571289	678.8548583984375	387.08837890625	36.78240203857422	504.1671447753906	nan	nan	nan	nan	nan	nan	
185	1.84	306.6111450195312	872.3193969726562	433.3560485839844	388.3989562988281	869.6038818359375	315.3160400390625	343.1445617675781	986.0311889648438	399.8803405761719	586.9938354492188	1182.713745117188	561.4675903320312	333.9613342285156	1111.196411132812	403.0436096191406	374.35595703125	1375.37939453125	479.7147827148438	552.5586547851562	1297.455078125	548.684814453125	282.7145385742188	1244.621704101562	520.4578857421875	394.1515808105469	1342.475219726562	373.7868957519531	524.9033813476562	1377.27099609375	353.5711669921875	557.7245483398438	1279.630859375	242.2719573974609	586.1984252929688	1081.800903320312	172.1392974853516	483.5117492675781	1061.233032226562	173.1939849853516	642.6052856445312	905.0242919921875	274.8016357421875	640.6231689453125	879.38427734375	206.2767181396484	617.568603515625	997.9940185546875	185.4705657958984	679.9886474609375	746.8350830078125	296.6432495117188	665.0079345703125	805.9417724609375	219.8119812011719	682.52978515625	827.382080078125	285.8180236816406	362.9784545898438	1324.05419921875	654.1967163085938	316.71435546875	1252.625	705.7193603515625	292.98583984375	969.386474609375	744.1557006835938	262.2730407714844	952.81396484375	685.4205322265625	412.1344299316406	774.7031860351562	745.3997192382812	329.23486328125	762.9220581054688	770.8234252929688	295.2682189941406	911.4968872070312	753.2324829101562	402.8894653320312	616.8843383789062	766.5873413085938	417.2625122070312	675.439697265625	771.105224609375	342.9317321777344	679.16357421875	785.985595703125	374.2085266113281	1568.393310546875	575.569580078125	561.9829711914062	1607.43994140625	499.5650024414062	499.3235778808594	1612.307373046875	614.185791015625	444.3265991210938	1562.7314453125	412.1365966796875	579.337646484375	787.2500610351562	300.5870971679688	349.0028076171875	792.1699829101562	625.8212280273438	457.4490356445312	851.2786865234375	625.7427978515625	606.080810546875	838.637451171875	415.6033935546875	681.524658203125	394.6386413574219	351.1446838378906	694.9332885742188	547.875	354.2952575683594	313.1883544921875	319.2090148925781	123.348876953125	555.8233642578125	338.238037109375	256.8421325683594	341.2490844726562	104.2837600708008	200.8158721923828	306.7532348632812	168.897216796875	224.1524810791016	353.6049499511719	178.7058410644531	122.8473434448242	274.6056213378906	365.5708923339844	163.7620849609375	525.7709350585938	440.1581420898438	686.47802734375	420.3510131835938	679.6129760742188	680.6069946289062	416.1191711425781	44.90526962280273	579.0311889648438	506.1502075195312	294.2066955566406	672.5224609375	621.4603881835938	36.66279983520508	670.6004028320312	590.1239624023438	45.89165496826172	602.4987182617188	506.4668579101562	39.59297943115234	678.1907348632812	387.5000915527344	40.15246200561523	503.2850341796875	nan	nan	nan	nan	nan	nan	
186	1.85	324.552490234375	871.9453735351562	444.1191101074219	406.0046691894531	868.4898681640625	325.9486083984375	360.2728271484375	985.1888427734375	410.4867248535156	605.3751831054688	1183.073120117188	570.5703735351562	350.7845458984375	1110.203002929688	413.7667541503906	390.9800109863281	1374.399291992188	490.1094055175781	569.9994506835938	1297.55029296875	557.844482421875	299.9865417480469	1243.02294921875	531.822509765625	410.1969299316406	1341.46044921875	384.3454284667969	540.6170043945312	1376.56005859375	362.6124267578125	571.7938842773438	1277.805053710938	251.3798065185547	596.56787109375	1078.466918945312	180.1652984619141	493.3992309570312	1060.956176757812	184.7228240966797	649.0809936523438	892.7179565429688	270.2548217773438	643.56103515625	871.6694946289062	200.2214813232422	625.1453857421875	992.5438232421875	187.5435943603516	681.015380859375	732.1815185546875	279.9216003417969	665.3268432617188	796.8121948242188	207.95556640625	686.0084838867188	812.976318359375	274.6520690917969	380.8623352050781	1323.098999023438	664.7333984375	336.1293029785156	1250.788696289062	716.6630859375	320.3861694335938	967.6525268554688	757.5368041992188	289.6805114746094	948.3069458007812	699.5477294921875	450.257568359375	780.316162109375	761.0528564453125	368.5619812011719	765.1704711914062	788.4482421875	325.9301452636719	910.13134765625	767.8941040039062	449.0157775878906	622.85400390625	788.59912109375	460.5476379394531	682.3339233398438	790.1966552734375	386.6250305175781	683.1419677734375	806.6589965820312	391.4276428222656	1567.9365234375	586.355712890625	579.4609985351562	1606.624389648438	510.8563842773438	516.6369018554688	1611.178100585938	625.4103393554688	461.8233337402344	1562.846557617188	423.0109252929688	597.7186889648438	786.8800048828125	310.8816223144531	367.4108581542969	791.7271728515625	635.9342041015625	476.3519287109375	850.2021484375	635.2667846679688	624.5938720703125	839.3776245117188	425.2067260742188	717.7481689453125	400.3022766113281	371.3674011230469	725.362548828125	553.6067504882812	369.9957885742188	351.3128051757812	310.0254821777344	146.1798858642578	593.6182250976562	338.9324645996094	278.7660217285156	389.5773620605469	98.95787811279297	228.2568206787109	351.6851501464844	161.9750823974609	250.0209808349609	398.1934814453125	171.9101409912109	148.6551971435547	310.4350891113281	355.3049926757812	185.5296020507812	538.26123046875	436.9949035644531	694.140380859375	437.0942993164062	678.1297607421875	689.6123657226562	416.3594970703125	47.1215705871582	578.7906494140625	513.907958984375	292.0363464355469	677.1130981445312	621.1563720703125	36.96855545043945	670.5672607421875	590.0953979492188	46.07015609741211	602.5439453125	506.2999572753906	40.0453987121582	677.66259765625	387.9994812011719	44.20702362060547	502.7322082519531	nan	nan	nan	nan	nan	nan	
187	1.86	342.60986328125	872.60791015625	454.678466796875	423.8863220214844	868.5750122070312	336.4692077636719	377.6086120605469	985.3226318359375	421.0863037109375	623.736328125	1184.868774414062	578.9957275390625	367.572998046875	1110.200927734375	424.4003295898438	407.4952697753906	1374.538696289062	499.9022521972656	587.3067016601562	1299.03173828125	566.3002319335938	317.2030639648438	1242.690063476562	542.7804565429688	426.0425109863281	1341.376831054688	394.4974975585938	555.972412109375	1376.963500976562	371.0408325195312	585.406982421875	1277.408569335938	259.8280944824219	606.4326782226562	1076.812377929688	187.4522247314453	502.9952087402344	1062.079345703125	195.793212890625	654.7321166992188	883.411376953125	265.9166564941406	645.7621459960938	866.6946411132812	194.8403778076172	632.1132202148438	989.286865234375	189.4207305908203	680.310546875	721.1659545898438	264.6349182128906	664.5935668945312	790.7271728515625	197.3007507324219	688.3059692382812	801.8689575195312	264.2652587890625	398.5410766601562	1323.712036132812	674.5625610351562	355.0904846191406	1250.889038085938	727.0023803710938	346.8879699707031	967.9070434570312	770.08642578125	316.4458923339844	945.8883056640625	712.818115234375	487.5306091308594	788.719970703125	775.1737670898438	407.3828735351562	769.8915405273438	804.6099853515625	355.7846374511719	910.9380493164062	781.6060180664062	495.0826416015625	632.1851196289062	807.7434692382812	503.4787292480469	692.340576171875	806.9693603515625	430.1491394042969	689.8494262695312	825.1265258789062	408.7454223632812	1568.681640625	596.5847778320312	597.113037109375	1606.851684570312	521.6055297851562	534.1275634765625	1611.052978515625	636.1064453125	479.4698181152344	1564.26220703125	433.3029479980469	616.40283203125	787.84619140625	321.1055297851562	385.5718688964844	792.1442260742188	645.712646484375	495.188720703125	849.9962158203125	644.6054077148438	643.0760498046875	841.3350219726562	434.8289489746094	753.061767578125	407.6102600097656	391.2816772460938	754.929931640625	560.8443603515625	385.4694213867188	389.6358032226562	298.3343505859375	169.5274810791016	631.1580810546875	340.0619201660156	300.7533874511719	439.6488952636719	92.88195037841797	257.4639892578125	398.0012817382812	153.8600311279297	277.27392578125	444.0256042480469	163.5824432373047	175.7671661376953	346.3816223144531	342.398681640625	207.6937408447266	549.61474609375	434.4183349609375	701.3751220703125	453.3370971679688	677.430908203125	698.3450927734375	416.6781005859375	49.79800033569336	578.9588623046875	520.75537109375	290.5804138183594	681.531005859375	620.8887329101562	37.2827033996582	670.5778198242188	590.10693359375	46.26971054077148	602.7283325195312	506.25	40.39115142822266	677.2952880859375	388.5326843261719	49.02826690673828	502.636962890625	nan	nan	nan	nan	nan	nan	
